<svg xmlns="http://www.w3.org/2000/svg" width="13" height="17" viewBox="0 0 13 17">
    <path fill="#001F33" fill-opacity=".09" fill-rule="nonzero" d="M11.375 5.667h-.813v-1.62C10.563 1.822 8.735 0 6.5 0S2.437 1.821 2.437 4.048v1.619h-.812C.731 5.667 0 6.395 0 7.286v8.095C0 16.271.731 17 1.625 17h9.75c.894 0 1.625-.728 1.625-1.619V7.286c0-.89-.731-1.62-1.625-1.62zM6.5 12.87a1.464 1.464 0 0 1-1.463-1.457c0-.801.659-1.457 1.463-1.457s1.463.656 1.463 1.457c0 .802-.659 1.457-1.463 1.457zm2.519-7.204H3.98v-1.62A2.527 2.527 0 0 1 6.5 1.539a2.527 2.527 0 0 1 2.519 2.51v1.619z"/>
</svg>
